HIERARCHY
ROOT Hips
{
	OFFSET 0.000000 0.000000 0.000000 
	CHANNELS 6 Xposition Yposition Zposition Zrotation Yrotation Xrotation
	JOINT LeftUpLeg
	{
		OFFSET 1.363060 -1.794630 0.839290 
		CHANNELS 3 Zrotation Yrotation Xrotation
		JOINT LeftLeg
		{
			OFFSET 2.448110 -6.726130 0.000000 
			CHANNELS 3 Zrotation Yrotation Xrotation
			JOINT LeftFoot
			{
				OFFSET 2.562200 -7.039590 0.000000 
				CHANNELS 3 Zrotation Yrotation Xrotation
				JOINT LeftToeBase
				{
					OFFSET 0.157640 -0.433110 2.322550 
					CHANNELS 3 Zrotation Yrotation Xrotation
					End Site
					{
						OFFSET 0.000000 0.000000 0.000000 
					}
				}
			}
		}
	}
	JOINT RightUpLeg
	{
		OFFSET -1.305520 -1.794630 0.839290 
		CHANNELS 3 Zrotation Yrotation Xrotation
		JOINT RightLeg
		{
			OFFSET -2.542530 -6.985550 0.000000 
			CHANNELS 3 Zrotation Yrotation Xrotation
			JOINT RightFoot
			{
				OFFSET -2.568260 -7.056230 0.000000 
				CHANNELS 3 Zrotation Yrotation Xrotation
				JOINT RightToeBase
				{
					OFFSET -0.164730 -0.452590 2.363150 
					CHANNELS 3 Zrotation Yrotation Xrotation
					End Site
					{
						OFFSET 0.000000 0.000000 0.000000 
					}
				}
			}
		}
	}
	JOINT Spine
	{
		OFFSET 0.028270 2.035590 -0.193380 
		CHANNELS 3 Zrotation Yrotation Xrotation
		JOINT Spine1
		{
			OFFSET 0.056720 2.048850 -0.042750 
			CHANNELS 3 Zrotation Yrotation Xrotation
			JOINT Neck1
			{
				OFFSET -0.054170 1.746240 0.172020 
				CHANNELS 3 Zrotation Yrotation Xrotation
				JOINT Head
				{
					OFFSET 0.104070 1.761360 -0.123970 
					CHANNELS 3 Zrotation Yrotation Xrotation
					End Site
					{
						OFFSET 0.000000 0.000000 0.000000 
					}
				}
			}
			JOINT LeftArm
			{
				OFFSET 3.362410 1.200890 -0.311210 
				CHANNELS 3 Zrotation Yrotation Xrotation
				JOINT LeftForeArm
				{
					OFFSET 4.983000 -0.000000 -0.000000 
					CHANNELS 3 Zrotation Yrotation Xrotation
					JOINT LeftHand
					{
						OFFSET 3.483560 -0.000000 -0.000000 
						CHANNELS 3 Zrotation Yrotation Xrotation
						JOINT LeftHandIndex1
						{
							OFFSET 0.715260 -0.000000 -0.000000 
							CHANNELS 3 Zrotation Yrotation Xrotation
							End Site
							{
								OFFSET 0.000000 0.000000 0.000000 
							}
						}
					}
				}
			}
			JOINT RightArm
			{
				OFFSET -3.136600 1.374050 -0.404650 
				CHANNELS 3 Zrotation Yrotation Xrotation
				JOINT RightForeArm
				{
					OFFSET -5.241900 -0.000000 -0.000000 
					CHANNELS 3 Zrotation Yrotation Xrotation
					JOINT RightHand
					{
						OFFSET -3.444170 -0.000000 -0.000000 
						CHANNELS 3 Zrotation Yrotation Xrotation
						JOINT RightHandIndex1
						{
							OFFSET -0.622530 -0.000000 -0.000000 
							CHANNELS 3 Zrotation Yrotation Xrotation
							End Site
							{
								OFFSET 0.000000 0.000000 0.000000 
							}
						}
					}
				}
			}
		}
	}
}
MOTION
Frames: 13
Frame Time: 0.041667
-10.667689 18.020962 14.711649 6.299539 77.922735 12.517425 -19.780325 -1.574956 -14.768702 -0.649609 6.072440 18.097981 -0.148192 1.316476 -1.411379 0.172800 2.678000 7.383600 17.973084 -13.647012 -14.429055 -5.182957 -13.428979 41.972604 5.268553 -24.917147 -8.519104 -0.716200 -5.408300 15.076700 1.238896 3.293203 1.317538 -1.838410 1.719907 -3.973403 2.798895 0.295354 30.047489 3.773200 -1.063600 17.688200 -84.138545 7.019155 5.306724 11.254527 -15.888871 -1.666672 -1.725852 -2.088826 14.915324 -7.125000 0.000000 0.000000 82.104710 -5.227667 14.146393 -19.830832 28.588856 -5.332512 0.572103 -0.035201 1.623072 7.125000 0.000000 0.000000 
-10.584338 18.018160 14.693638 7.406879 78.418407 13.489719 -20.158969 -0.904987 -14.365914 -0.696558 5.858735 17.563184 -0.037959 0.522691 -1.206795 0.150100 2.496600 6.880100 17.585361 -13.322386 -15.070677 -5.695150 -13.933665 43.842500 5.344635 -25.337515 -6.856807 -0.756900 -5.556500 15.502900 1.223008 3.305264 1.317130 -1.770471 1.721926 -4.009705 2.788960 0.205165 30.067468 3.732500 -1.078100 17.698100 -84.316207 7.148702 5.538089 11.323898 -15.993159 -1.690039 -1.787766 -2.081354 15.151605 -7.125000 0.000000 0.000000 82.235453 -5.180413 13.767033 -19.843873 28.586672 -5.329750 0.593547 -0.022975 1.470249 7.125000 0.000000 0.000000 
-10.502889 18.013858 14.675327 8.559718 78.945198 14.500810 -20.470478 -0.366989 -13.884148 -0.746746 5.626477 16.980819 0.065903 -0.273955 -0.930983 0.124400 2.273800 6.263100 17.226058 -13.001043 -15.748063 -6.235844 -14.431809 45.762971 5.284718 -25.361851 -4.892276 -0.772400 -5.611800 15.662100 1.215824 3.308113 1.336955 -1.706445 1.719109 -4.023899 2.699236 0.103193 30.063181 3.635600 -1.097200 17.714500 -84.500080 7.174745 5.819850 11.362583 -16.045605 -1.702646 -1.905687 -2.017969 15.343925 -7.125000 0.000000 0.000000 82.287763 -5.067907 13.498703 -19.794161 28.515581 -5.299331 0.599628 -0.017155 1.551074 7.125000 0.000000 0.000000 
-10.422240 18.007354 14.659017 10.327921 79.456156 16.130410 -20.855892 0.091390 -13.358043 -0.792264 5.392500 16.405736 0.157826 -1.038702 -0.626812 0.082900 1.857200 5.111300 16.801097 -12.698126 -16.498780 -6.748106 -14.904636 47.667948 5.150331 -25.014564 -4.168224 -1.218500 -7.001700 19.720400 1.200827 3.254710 1.355043 -1.554503 1.686547 -4.039845 2.772002 -0.001615 29.980912 3.631700 -1.107400 17.669100 -84.667691 7.295301 6.639346 11.488689 -16.224094 -1.750157 -1.906391 -1.994358 15.030850 -7.125000 0.000000 0.000000 82.339591 -4.961668 13.243394 -19.739239 28.440663 -5.267525 0.601714 -0.017065 1.787881 7.125000 0.000000 0.000000 
-10.342091 18.000250 14.643007 13.153290 79.930496 18.799349 -21.413289 0.591854 -12.834606 -0.830956 5.155175 15.839225 0.249228 -1.857823 -0.362564 0.071600 1.725900 4.748800 16.197036 -12.419640 -17.260778 -7.244880 -15.348021 49.502569 4.892909 -24.179672 -3.418321 -1.466900 -7.654000 21.668100 1.151255 3.162767 1.366861 -1.364906 1.634173 -4.077119 2.927174 -0.085216 29.918708 3.696300 -1.118000 17.636000 -84.792255 7.488490 7.546949 11.690957 -16.525397 -1.828033 -1.850739 -2.014260 14.499170 -7.125000 0.000000 0.000000 82.389625 -4.841335 12.989999 -19.677056 28.358245 -5.233340 0.599569 -0.017554 1.902267 7.125000 0.000000 0.000000 
-10.263243 17.989743 14.626998 15.758168 80.526361 21.232458 -21.820455 0.996052 -12.287125 -0.865473 4.926420 15.293405 0.338581 -2.709357 -0.081241 0.067800 1.680100 4.622300 15.687701 -12.087990 -17.872064 -7.701880 -15.730707 51.173077 4.452183 -22.624610 -2.294844 -1.252700 -7.095700 19.999100 1.130438 2.986231 1.355689 -1.216978 1.541087 -4.188608 2.884759 -0.049608 29.793685 3.675800 -1.105900 17.526500 -84.927728 7.746041 8.352967 11.894078 -16.834473 -1.907532 -1.833108 -2.031090 14.066866 -7.125000 0.000000 0.000000 82.320724 -4.821927 13.119632 -19.661612 28.332721 -5.224680 0.597167 -0.013891 1.826827 7.125000 0.000000 0.000000 
-10.187097 17.975434 14.613089 18.470713 81.173896 23.776974 -22.130663 1.081550 -11.669778 -0.895702 4.733074 14.837612 0.393769 -3.303070 0.114740 0.084400 1.873500 5.156300 15.226302 -11.638002 -18.406213 -8.103536 -16.061252 52.683329 3.946857 -20.666900 -1.554375 -0.984700 -6.316200 17.704500 1.120771 2.798316 1.352652 -1.073466 1.441922 -4.286816 2.813384 -0.054359 29.602538 3.638700 -1.116800 17.386400 -85.021578 7.950062 9.307455 12.100531 -17.148020 -1.990667 -1.820971 -2.059413 13.454308 -7.125000 0.000000 0.000000 82.292258 -4.758063 13.200495 -19.642089 28.303054 -5.214021 0.594718 -0.013290 1.844486 7.125000 0.000000 0.000000 
-10.107448 17.968030 14.601782 21.314613 81.692449 26.457719 -22.428628 1.136982 -11.041700 -0.915064 4.575623 14.478618 0.442249 -3.844393 0.196396 0.214700 2.983000 8.231300 14.739328 -11.068217 -18.902895 -8.455478 -16.348581 54.035065 3.425684 -18.511371 -1.055985 -0.749400 -5.529300 15.424500 1.092324 2.687399 1.381473 -0.950649 1.379639 -4.293737 2.887636 -0.148158 29.497750 3.668500 -1.148500 17.340800 -85.046273 7.996269 10.390424 12.300327 -17.440999 -2.074364 -1.729631 -2.122862 12.728115 -7.125000 0.000000 0.000000 82.387531 -4.657796 13.023284 -19.629987 28.284017 -5.205894 0.595988 -0.014785 2.099114 7.125000 0.000000 0.000000 
-10.029901 17.960926 14.590075 26.019672 82.072241 31.082391 -23.004336 1.135126 -10.500697 -0.920854 4.447276 14.215847 0.493576 -4.496138 0.311875 0.356800 3.837300 10.619400 13.981128 -10.541898 -19.570023 -8.779210 -16.617124 55.275637 2.852048 -16.076945 -0.256903 -0.489900 -4.487600 12.452800 0.980364 2.554841 1.373348 -0.845753 1.310687 -4.321546 2.986495 -0.186305 29.594384 3.688900 -1.129300 17.436100 -84.976252 8.076552 11.664493 12.532342 -17.783686 -2.176884 -1.557996 -2.202047 12.041166 -7.125000 0.000000 0.000000 82.528293 -4.608344 13.015398 -19.644796 28.297296 -5.211581 0.601061 -0.018800 2.226428 7.125000 0.000000 0.000000 
-9.956256 17.943815 14.574165 32.224913 82.289267 37.311424 -23.849143 1.122528 -10.288624 -0.884319 4.465316 14.351850 0.549346 -5.214499 0.269981 0.295800 3.497400 9.666800 12.986414 -10.003272 -20.423116 -9.058337 -16.852204 56.361299 2.230951 -13.330772 0.724089 -0.271800 -3.353800 9.265300 0.826244 2.402245 1.358716 -0.714687 1.237513 -4.292750 3.142729 -0.177107 29.738560 3.741900 -1.080700 17.568700 -84.911917 8.084673 12.814511 12.751085 -18.108406 -2.275902 -1.452214 -2.229394 11.679696 -7.125000 0.000000 0.000000 82.581904 -4.569598 13.274101 -19.707813 28.375158 -5.245520 0.599940 -0.019725 2.183791 7.125000 0.000000 0.000000 
-9.880811 17.928006 14.559156 36.489681 82.538305 41.512561 -24.292127 1.001721 -9.952543 -0.855026 4.491272 14.480636 0.585241 -5.712217 0.267703 0.401300 4.067000 11.265200 12.394092 -9.272485 -21.124525 -9.315663 -17.049661 57.369311 1.679073 -10.736678 1.409091 -0.178800 -2.723700 7.510300 0.778494 2.331425 1.351271 -0.565208 1.201929 -4.332379 3.380382 -0.242327 29.703093 3.882100 -1.097000 17.548500 -84.955881 8.009367 13.607869 12.870204 -18.273870 -2.330555 -1.433976 -2.204857 11.682252 -7.125000 0.000000 0.000000 82.532636 -4.586725 13.371786 -19.754696 28.432474 -5.270814 0.595340 -0.015559 2.268098 7.125000 0.000000 0.000000 
-9.797960 17.945616 14.545248 38.714224 82.894185 43.574365 -24.010916 -0.771428 -8.768497 -0.847201 4.574542 14.731682 0.543219 -5.319442 0.185380 1.896100 8.646100 24.694500 12.233627 -8.586767 -21.573613 -9.491075 -17.178953 58.082696 1.249610 -8.585322 1.721613 -0.126800 -2.295000 6.321700 0.782552 2.311509 1.351954 -0.526022 1.188033 -4.425327 3.503222 -0.355396 29.613515 3.952400 -1.142600 17.486800 -84.928457 7.955122 14.537436 12.983618 -18.435781 -2.383013 -1.449322 -2.189769 11.361896 -7.125000 0.000000 0.000000 82.577874 -4.600238 13.256123 -19.744481 28.423275 -5.267629 0.585562 -0.022841 2.591375 7.125000 0.000000 0.000000 
-9.727617 17.899388 14.535442 40.537563 83.242609 45.270526 -24.428711 0.509173 -9.291131 -0.765353 4.749658 15.246832 0.606582 -5.741989 -0.540574 0.458500 4.343600 12.045500 12.171073 -7.902312 -22.216817 -9.686443 -17.310161 58.839863 0.911668 -6.784026 1.673155 -0.071000 -1.719000 4.729600 0.763858 2.259058 1.355363 -0.574482 1.163603 -4.479730 3.416986 -0.371748 29.556191 3.891800 -1.146100 17.450200 -84.770947 7.874154 15.441948 13.096320 -18.603801 -2.437561 -1.432891 -2.189180 10.935807 -7.125000 0.000000 0.000000 82.727217 -4.566425 13.252104 -19.763242 28.448480 -5.279565 0.579402 -0.027298 2.726236 7.125000 0.000000 0.000000 
